/* XPM */
static char *firesoup[] = {
/* columns rows colors chars-per-pixel */
"16 16 15 1",
"  c #CE1D2D",
". c #D22B3A",
"X c #D53948",
"o c #D84856",
"O c #DC5866",
"+ c #DF6875",
"@ c #E27985",
"# c #E58A95",
"$ c #E89CA5",
"% c #EEBBC1",
"& c #F4D5D8",
"* c #F9EBED",
"= c #FCF5F6",
"- c gray100",
"; c None",
/* pixels */
";;;;;;    ;;;;;;",
";;;;        ;;;;",
";;;          ;;;",
";;     .O.    ;;",
";    o&---&    ;",
";   .=--&$&    ;",
"    O---#.      ",
"    O----=$     ",
"     %-----@    ",
"      +*---$    ",
";   O#X@---O   ;",
";   o-----@    ;",
";;   o$$$X    ;;",
";;;          ;;;",
";;;;        ;;;;",
";;;;;;    ;;;;;;"
};
