/* XPM */
static char *firesoup[] = {
/* columns rows colors chars-per-pixel */
"16 16 67 1",
"  c #8F0B01",
". c #900A00",
"X c #910A00",
"o c #900B00",
"O c #910B01",
"+ c #950A00",
"@ c #990B00",
"# c #9D0B00",
"$ c #9C0E03",
"% c #8E150C",
"& c #90150C",
"* c #91150C",
"= c #8E1B12",
"- c #981B11",
"; c #A20B00",
": c #A60B00",
"> c #A90C00",
", c #AA0C00",
"< c #A80F03",
"1 c #A9150B",
"2 c #97362F",
"3 c #9E3D36",
"4 c #AA352D",
"5 c #AA3D34",
"6 c #A35651",
"7 c #A35852",
"8 c #B2736F",
"9 c #AA7673",
"0 c #B7837F",
"q c #898989",
"w c gray54",
"e c #8E8E8E",
"r c gray56",
"t c #B08884",
"y c #B38E8C",
"u c #B4908D",
"i c gray65",
"p c #A7A7A7",
"a c #B9B9B9",
"s c gray73",
"d c #C3A3A0",
"f c #C3A5A3",
"g c #CAAEAC",
"h c #CBB4B2",
"j c #CCB6B4",
"k c #CCB9B7",
"l c #CCBEBC",
"z c #D0C5C4",
"x c gray83",
"c c #D5D5D5",
"v c #E0D9D9",
"b c #E4E0E0",
"n c #E8E1E1",
"m c #EAE4E4",
"M c #EFEAEA",
"N c #F0ECEC",
"B c #F3F2F2",
"V c #F5F4F4",
"C c #F6F6F6",
"Z c gray97",
"A c #F8F8F8",
"S c gray98",
"D c #FBFBFB",
"F c gray99",
"G c #FDFDFD",
"H c #FEFEFE",
"J c None",
/* pixels */
"JJJJJwpsspwJJJJJ",
"JJJJcHHHHHHcJJJJ",
"JJrAHHv08lAHZrJJ",
"JJAHn4::;#-gHAJJ",
"JcHN1::;#@+XdHcJ",
"wHH5,:;#@+X &BAw",
"pHA<:;#@+X XXyHp",
"sHk::#@+XXXXX7As",
"sHj;#@+X X...6Ha",
"iHH$@+X X ...yAp",
"wHH3+X X ...%VHw",
"JcFN&XX X . fFxJ",
"JJZHn2 XXO=hFCJJ",
"JJrCHHbt9zAHCrJJ",
"JJJJcFHAHFAcJJJJ",
"JJJJJwpaspwJJJJJ"
};
